<?xml version='1.0' encoding='utf-8'?>
<svg xmlns="http://www.w3.org/2000/svg" width="1152.3mm" height="1591.2mm" version="1.1" viewBox="0 0 1152.3 1591.2"><g transform="translate(-189.95 4469.1)"><g transform="translate(0 -291.04)"><path d="m189.95-4178.1h1152.3v1591.2h-1152.3z" fill="#faf2e6" stop-color="#000000" stroke-linecap="square" stroke-width="8.7001" style="paint-order:markers stroke fill"/><path d="m831.45-2689.1c-11.879-2.6559-23.539-13.558-26.178-24.476-2.1589-8.9307 2.0341-21.484 9.4775-28.375 10.363-9.5943 25.362-12.442 37.037-7.0322 12.459 5.7735 19.245 24.227 14.193 38.596-5.0872 14.467-21.042 24.304-34.529 21.287zm-344.59-4.77c-20.305-2.8047-40.489-10.152-65.297-23.768-15.763-8.6524-25.32-17.804-29.335-28.091-3.5941-9.2087-0.72492-21.028 6.7951-27.992 14.063-13.023 50.18-21.64 119.65-28.547 44.333-4.4073 66.785-7.9132 92.813-14.491 18.433-4.6587 38.521-8.8742 71.167-14.936 40.086-7.4428 80.167-16.69 99.49-22.954 44.072-14.286 68.21-28.664 91.236-54.346 19.36-21.593 26.725-42.888 20.328-58.781-3.4229-8.5053-9.2634-12.548-18.207-12.602-12.641-0.078-24.688 9.9058-41.715 34.567-23.541 34.096-42.46 46.937-114.93 78.009-36.456 15.632-47.549 18.911-99.53 29.423-83.815 16.949-99.511 19.366-134.64 20.732-33.506 1.3036-75.866-4.0196-100.66-12.648-18.251-6.3523-35.956-17.66-48.612-31.048-17.454-18.462-24.339-39.588-19.757-60.622 3.097-14.217 14.13-31.701 27.128-42.992 16.412-14.256 40.362-23.249 70-26.283 19.95-2.042 58.552 0.051 88.072 4.779 23.434 3.7525 36.207 6.8897 65.811 16.163 58.986 18.478 83.801 22.934 121.82 21.876 41.977-1.1685 63.444-6.0591 100.34-22.859 33.705-15.347 51.609-28.323 58.519-42.408 2.3108-4.7107 2.481-5.7873 2.4269-15.353-0.0702-12.37-2.1093-20.038-9.9491-37.407-11.587-25.671-20.116-35.068-31.824-35.068-11.123 0-19.013 6.7097-40.686 34.601-15.445 19.876-26.29 31.659-37.468 40.706-25.194 20.392-48.883 28.933-80.02 28.85-16.35-0.043-28.02-1.9242-45.992-7.4121-14.808-4.5217-21.17-7.3713-44.191-19.792-34.174-18.438-28.862-17.448-94.136-17.564-37.066-0.065-55.08-0.4492-61.875-1.315-26.581-3.3879-47.907-13.465-59.146-27.949-17.563-22.634-15.085-60.652 5.254-80.6 7.8917-7.7393 14.058-10.433 42.776-18.682 7.3071-2.0984 17.896-5.6512 23.53-7.8938 21.694-8.6351 36.1-12.445 50.407-13.332 18.618-1.1539 34.889 2.563 76.18 17.401 27.344 9.8263 33.676 11.927 52.289 17.345 6.4708 1.8834 20.589 6.5133 31.373 10.289 23.558 8.2466 30.255 9.8105 42.012 9.8103 18.879-3e-4 70.348-11.431 87.655-19.467 24.985-11.601 41.515-30.894 59.038-68.905 9.7883-21.233 12.9-31.208 12.981-41.615 0.0581-7.4581-0.054-7.9666-1.8212-8.2369-1.4618-0.2223-3.0493 1.3466-7.093 7.0141-2.8653 4.0157-6.3317 8.4013-7.7031 9.7459-10.317 10.113-52.386 40.403-66.111 47.6-8.1869 4.2932-33.7 11.902-42.745 12.747-11.295 1.056-20.469-3.6938-24.087-12.471-0.88866-2.1559-2.014-7.3284-2.5009-11.495-1.1668-9.986 0.0627-17.108 4.5559-26.388 6.5881-13.607 18.728-24.297 40.125-35.333 9.555-4.9283 13.101-6.14 32.931-11.253 47.799-12.325 48.423-12.634 82.791-41.029 5.5122-4.554 13.903-11.17 18.646-14.701 6.6863-4.9786 10.042-8.3151 14.936-14.848 3.4713-4.6348 9.1392-11.372 12.595-14.973 3.4561-3.6001 8.4604-9.4919 11.121-13.092 7.4746-10.116 11.498-14.372 17.65-18.669 10.009-6.9927 26.346-22.357 34.859-32.786 4.5535-5.5778 10.509-12.703 13.235-15.833 2.726-3.1302 5.3482-6.7971 5.8272-8.1492 1.3514-3.8142 4.2953-22.81 4.9032-31.639 0.301-4.3716 1.3066-11.199 2.2345-15.172 0.92808-3.9725 1.6873-8.7259 1.6873-10.563 0-4.4395-3.1743-7.9311-7.2098-7.9311-4.6694 0-12.182 2.7584-14.876 5.4624-9.7739 9.8086-24.415 38.468-29.779 58.29-2.2617 8.3586-5.6085 16.985-12.171 31.375-10.509 23.042-11.256 24.288-24.064 40.176-21.944 27.22-25.575 30.793-42.091 41.418-20.578 13.238-38.474 17.264-49.694 11.178-6.2932-3.4136-9.2686-7.8239-9.8402-14.587-0.40069-4.7432 0.0229-7.0737 3.0389-16.703 4.985-15.919 15.315-38.527 22.886-50.087 3.5061-5.3531 8.0909-12.35 10.188-15.549 2.0975-3.1988 6.6918-11.694 10.209-18.878 3.5175-7.1833 8.7482-16.56 11.624-20.836 2.8755-4.2765 6.4051-10.3 7.8435-13.386 3.1754-6.8118 7.8679-12.653 15.51-19.306 3.1642-2.7545 9.2313-9.2893 13.482-14.521 10.41-12.812 31.915-31.14 49.762-42.411 8.3907-5.299 21.88-16.913 30.058-25.88 6.2439-6.8454 6.7933-8.6664 7.8435-26 1.0476-17.29 0.79038-21.65-1.8487-31.328-4.0226-14.752-6.4285-18.513-14.838-23.195-9.6218-5.3573-32.204-3.2444-48.85 4.5707-12.556 5.8951-35.757 25.308-41.67 34.867-3.5622 5.7584-5.7617 15.223-7.998 34.414-1.2188 10.459-3.808 21.318-10.271 43.076-3.2428 10.918-9.374 21.802-23.585 41.867-7.9356 11.205-14.183 21.718-22.586 38.006-6.5688 12.732-8.245 17.417-12 33.534-3.8673 16.6-6.4131 24.398-13.967 42.779-7.2442 17.628-9.7369 22.306-19.149 35.934-3.2576 4.7161-12.072 18.604-19.588 30.86-16.5 26.908-23.675 37.273-31.057 44.864-18.373 18.894-54.008 34.409-91.108 39.666-10.213 1.4475-34.731 0.6506-40.316-1.3103-24.191-8.4935-36.427-16.392-53.491-34.527-9.9738-10.6-12.76-15.538-14.909-26.424-1.7925-9.0807-1.6416-13.817 0.76347-23.944 3.6981-15.573 12.125-32.343 22.063-43.905 3.2842-3.8211 9.3113-10.946 13.393-15.832 20.417-24.438 32.405-36.292 52.251-51.667 11.462-8.8796 45.197-27.039 81.222-43.723 27.664-12.811 52.114-28.266 79.883-50.496 9.959-7.9724 21.942-17.441 26.628-21.041 13.551-10.41 20.349-18.267 25.659-29.656 6.9058-14.811 7.6668-26.979 2.5966-41.521-2.6599-7.6291-12.42-18.121-19.497-20.96-8.5905-3.4453-16.454-3.4846-30.128-0.153-6.4369 1.5691-15.324 3.7088-19.75 4.754-8.8626 2.0939-41.807 15.558-47.572 19.443-10.352 6.9764-26.035 22.06-52.846 50.827-11.283 12.107-26.986 28.3-34.895 35.984-7.9088 7.6848-21.151 21.014-29.426 29.621-17.689 18.397-23.788 23.965-45.957 41.951-17.808 14.448-35.867 27.037-47.06 32.804-7.6637 3.9492-22.454 8.444-35.295 10.726-11.951 2.1242-31.742 1.87-44.798-0.5747-24.426-4.5739-32.839-7.396-50.053-16.79-15.999-8.7304-24.468-14.911-32.893-24.004-13.665-14.749-17.264-21.459-21.755-40.551-2.8815-12.25-0.24183-24.964 8.5424-41.147 12.338-22.732 12.231-22.64 36.524-31.191 9.4047-3.31 20.768-7.9563 25.253-10.326 10.228-5.4027 20.793-8.2924 39.592-10.828 8.1122-1.0941 19.848-2.7864 26.079-3.7602 6.2312-0.9736 18.78-2.4525 27.887-3.286 9.1071-0.8333 23.029-2.5264 30.938-3.7621 7.9086-1.2358 21.439-3.1198 30.066-4.1876 20.463-2.5325 31.024-5.257 67.104-17.315 6.7105-2.2425 22.789-7.2495 35.731-11.127 47.025-14.088 58.215-21.208 58.237-37.055 0.01-6.7252-3.7094-14.422-10.566-21.869-4.0674-4.4178-7.0959-6.4958-16.71-11.468-27.33-14.132-40.328-15.93-65.82-9.1049-15.159 4.0591-36.92 17.178-61.875 37.302-16.961 13.677-30.147 23.122-38.345 27.467-12.658 6.7081-29.279 12.324-47.932 16.196-9.6427 2.0011-61.928 1.6788-72.537-0.4467-4.4261-0.8872-13.838-2.2299-20.915-2.9836-11.53-1.2284-13.503-1.7067-18.968-4.5974-7.054-3.7299-15.653-10.885-18.467-15.365-2.277-3.6259-5.0664-11.307-7.0682-19.463-1.8855-7.6836-0.6358-14.667 4.6554-26.015 3.9653-8.5036 14.471-22.43 25.528-33.839 11.948-12.329 31.245-18.72 72.914-24.148 37.699-4.9112 52.71-5.6713 81.048-4.1015 29.566 1.6374 61.175 1.6567 71.026 0.044 9.8685-1.6168 38.757-8.9348 43.138-10.928 7.7926-3.5441 11.534-8.3667 14.063-18.126 1.3752-5.3081 1.368-6.1053-0.13117-14.306-0.87333-4.7763-1.636-13.103-1.6952-18.504-0.13616-12.407-2.0389-17.7-8.1418-22.647-10.202-8.2701-20.307-11.484-33.725-10.724-6.8555 0.3884-14.479 2.0163-35.731 7.63-14.859 3.9248-31.33 7.7729-36.602 8.5511-11.386 1.6807-17.084 3.1687-28.759 7.5099-4.7932 1.7825-13.816 4.8509-20.05 6.8198-11.92 3.7643-35.097 13.141-54.077 21.877-25.042 11.526-47.63 15.552-60.763 10.829-9.6428-3.4675-18.441-12.335-25.483-25.683-10.948-20.754-10.342-45.412 1.5921-64.674 8.2014-13.238 18.985-23.812 28.228-27.679 3.7306-1.561 15.892-4.4085 26.846-6.2872 3.3551-0.5753 14.924-1.4067 25.709-1.8484 10.785-0.4413 24.118-1.5061 29.63-2.3659 12.725-1.9848 33.739-0.7275 62.747 3.7548 5.0327 0.7775 21.308 2.6785 36.167 4.2244 14.859 1.545 30.742 3.1996 35.295 3.676 4.5535 0.4765 16.123 1.1332 25.71 1.4594 17.082 0.5811 17.574 0.5448 24.555-1.8219 8.8691-3.0066 13.553-6.7325 22.972-18.275 3.9872-4.8866 9.5873-11.62 12.445-14.963 6.5092-7.6159 10.728-14.569 12.045-19.851 0.82763-3.3202 0.76175-5.3084-0.3508-10.588-3.6316-17.232-7.7073-23.118-21.017-30.35-7.4177-4.0304-8.033-4.1992-14.815-4.0545-9.2236 0.1981-17.968 1.9916-45.131 9.2645-25.115 6.7246-26.627 6.9482-69.446 10.245-33.46 2.5761-38.79 3.4476-68.539 11.21-21.723 5.6669-30.852 8.9028-50.11 17.76-16.774 7.7144-35.189 13.477-45.317 14.18-10.346 0.719-15.461-1.418-23.151-9.67-12.014-12.892-15.942-20.77-16.707-33.512-0.53442-8.8987 1.549-18.384 6.2205-28.317 3.2798-6.9739 9.0901-14.563 12.604-16.462 6.6418-3.5893 28.522-6.7107 41.252-5.8851 4.9371 0.3216 11.722 0.1581 15.077-0.3579 3.3552-0.5172 16.101-1.0892 28.323-1.2708 16.446-0.2439 24.714-0.7825 31.809-2.0689 7.1899-1.3035 12.527-1.641 21.351-1.3504 21.265 0.7008 85.557 0.5418 99.785-0.2473 13.433-0.7446 14.439-0.6703 27.452 2.0236 7.4295 1.5378 15.273 3.0789 17.43 3.4238 2.1571 0.3465 10 2.0443 17.43 3.7764 21.309 4.9666 27.292 5.6383 33.552 3.7666 2.8759-0.8595 9.7389-1.7892 15.251-2.0659 9.4755-0.4761 10.474-0.3467 18.301 2.3702 5.1288 1.7803 11.05 4.7523 15.562 7.8114 4.0056 2.7158 8.1233 5.4577 9.1505 6.0928 4.6459 2.8738 7.7917 0.7339 16.4-11.154 8.7246-12.049 11.208-14.764 15.914-17.398 5.8683-3.284 14.828-3.4845 20.182-0.4522 9.6631 5.4737 13.268 16.548 8.7606 26.914-4.5416 10.443-14.743 16.566-35.926 21.564-18.172 4.2869-26.43 7.1327-34.584 11.916-28.429 16.678-37.813 46.747-16.841 53.966 5.2116 1.7939 15.365 0.674 23.721-2.6169 10.478-4.126 17.513-8.9136 40.859-27.805 37.481-30.329 55.957-40.102 96.284-50.932 29.328-7.8756 41.163-11.563 67.54-21.044 30.643-11.014 38.568-13.052 48.378-12.443 8.484 0.5272 13.669 3.4732 17.069 9.6994 2.0913 3.8295 2.2742 4.9184 1.9222 11.443-0.32712 6.0608-0.91174 8.2784-3.6654 13.902-9.7727 19.956-33.387 38.84-59.783 47.805-11.585 3.9352-21.867 6.1572-43.988 9.5083-33.777 5.1165-44.782 8.3533-82.812 24.358-33.174 13.961-39.308 16.402-61.44 24.449-11.264 4.0956-24.629 9.3242-29.701 11.619-31.095 14.069-51.214 34.058-59.507 59.124-2.5275 7.6388-2.6913 8.9495-2.7117 21.69-0.0195 12.923 0.0929 13.823 2.4221 19.171 2.833 6.5042 6.5734 11.018 11.5 13.876 2.9 1.6821 4.8776 2.0141 11.765 1.973 9.9693-0.057 19.218-3.107 33.923-11.179 26.192-14.376 49.181-32.494 78.934-62.208 24.232-24.2 38.807-35.975 55.942-45.192 12.231-6.5798 20.232-9.8791 48.636-20.053 14.38-5.1509 30.176-11.09 35.104-13.198 23.388-10.006 38.724-20.584 61.195-42.215 32.898-31.666 45.818-40.908 79.538-56.894 53.04-25.145 97.465-32.258 122.42-19.604 6.7083 3.4005 15.121 11.596 17.516 17.063 2.9218 6.6701 3.9909 15.483 2.7406 22.593-5.223 29.703-45.687 67.104-89.492 82.719-6.4999 2.317-20.048 5.7836-34.859 8.9197-26.691 5.6509-37.307 8.509-47.25 12.72-14.252 6.0351-30.371 17.092-47.567 32.629-27.649 24.982-36.718 31.997-52.081 40.289-10.25 5.533-15.983 8.0059-42.039 18.138-11.024 4.2869-33.182 13.266-49.239 19.953-20.247 8.4324-36.54 14.485-53.16 19.75-61.59 19.511-79.842 27.396-89.534 38.678-10.068 11.721-7.5839 24.269 6.9042 34.868 18.092 13.236 50.004 16.601 73.915 7.7938 13.542-4.9879 21.117-10.328 47.075-33.19 26.018-22.914 31.356-26.95 45.737-34.575 18.573-9.8475 29.864-13.726 85.473-29.36 46.341-13.028 69.778-24.192 109.74-52.272 28.276-19.869 50.469-37.906 83.715-68.035 28.826-26.124 51.345-37.538 67.211-34.067 17.828 3.8997 27.322 20.297 23.405 40.423-3.1267 16.064-9.9226 28.671-23.099 42.848-13.133 14.131-25.403 23.183-50.11 36.965-15.645 8.7276-24.027 12.59-39.682 18.289-20.904 7.6083-32.15 10.662-63.182 17.158-54.933 11.499-70.1 16.787-121.77 42.46-33.399 16.595-45.567 23.667-57.933 33.668-17.631 14.26-30.73 32.476-30.752 42.764-0.0107 4.5575 1.24 5.9425 6.2497 6.9255 12.469 2.4468 35.324-7.144 69.124-29.007 34.712-22.453 48.43-27.628 89.328-33.697 32.645-4.8444 45.44-8.1954 65.797-17.233 9.1516-4.0624 30.312-15.325 45.521-24.229 26.021-15.233 48.702-23.159 62.107-21.703 6.0641 0.6583 13.956 4.0173 17.292 7.3595 6.7475 6.7599 8.8885 18.504 5.3933 29.582-4.8098 15.245-20.623 33.955-36.713 43.439-18.676 11.009-38.492 12.558-74.863 5.8527-25.687-4.7354-34.319-5.6263-48.367-4.9923-14.425 0.6507-22.596 2.6634-33.039 8.1381-16.171 8.4778-25.879 23.414-23.151 35.619 2.0799 9.3037 8.7348 15.478 21.33 19.792 5.2018 1.7811 7.8977 2.0735 18.301 1.983 7.4029-0.064 14.6-0.673 18.301-1.5473 3.3551-0.7933 15.176-3.5823 26.268-6.1981 34.052-8.0309 55.094-10.083 71.838-7.0038 16.939 3.1153 30.697 9.5043 42.932 19.937 7.7636 6.6206 10.629 10.22 13.738 17.258 4.6298 10.482 4.1172 20.447-1.506 29.286-5.0622 7.9576-13.785 12.199-26.911 13.086-10.636 0.7188-17.894-1.3524-39.514-11.274-26.824-12.31-38.618-15.564-56.342-15.547-20.484 0.035-37.855 7.2336-50.755 21.077-9.7745 10.488-13.596 23.942-9.4593 33.297 4.7751 10.798 19.285 17.618 37.484 17.618 4.075 0 18.504-1.4929 32.064-3.3178 26.711-3.5945 61.891-5.7132 77.815-4.6864 11.193 0.7221 23.216 3.3859 29.362 6.5058 17.419 8.8425 22.671 27.562 13.301 47.404-3.6044 7.6331-12.788 16.777-21.387 21.295-9.0945 4.7782-14.714 6.3357-25.735 7.1309-7.6155 0.5492-9.6038 0.3429-17.155-1.7961-13.026-3.6864-28.595-10.184-34.282-14.308-10.557-7.6542-47.55-23.158-65.241-27.342-9.8223-2.3235-19.932-2.3808-27.903-0.1599-7.8885 2.1997-9.0897 2.938-13.493 8.2977-4.8151 5.8611-6.3975 9.3432-11.367 25.011-2.2879 7.2135-5.3669 16.692-6.8422 21.064-5.35 15.854-2.9623 29.819 6.1106 35.739 3.5033 2.2863 10.938 4.0681 24.736 5.9268 12.688 1.7097 20.41 1.3697 29.63-1.3023 31.631-9.1678 40.685-11.816 50.11-14.659 5.9913-1.8071 16.58-4.5174 23.53-6.0236 6.9502-1.5058 16.176-3.5841 20.501-4.6185 14.631-3.4983 22.81-4.1018 40.25-2.968 24.532 1.5953 30.151 3.4549 40.066 13.261 6.9533 6.8766 11.608 13.557 13.779 19.776 1.3864 3.9713 1.447 5.4645 0.5609 13.827-0.5466 5.1563-0.9936 11.263-0.9936 13.57 0 11.673-14.315 30.651-29.259 38.791-7.9586 4.3353-15.631 5.2804-31.527 3.8852-7.07-0.6205-15.258-1.125-18.194-1.1212-3.3074 0-9.8931-1.2566-17.304-3.3125-19.851-5.5078-50.628-11.552-66.248-13.011-3.3553-0.3149-10.414-1.4231-15.687-2.4657-21.056-4.1646-23.838-5.3204-33.988-14.118-8.3451-7.2332-18.914-12.605-29.342-14.912-22.243-4.9224-29.907-2.3257-55.627 18.847-12.996 10.698-19.713 17.347-31.059 30.745-8.3188 9.824-10.651 13.278-14.259 21.121-8.9334 19.416-8.7679 27.213 0.87311 41.15 8.3747 12.107 22.321 22.594 37.473 28.179 6.8332 2.5182 22.166 2.3535 32.333-0.3466 18.988-5.0448 37.679-13.209 53.168-23.222 6.4844-4.1918 26.186-13.863 36.035-17.689 11.639-4.521 31.579-10.34 44.65-13.031 16.305-3.3563 33.399-4.5267 59.311-4.0601 25.33 0.4556 26.751 0.7581 41.267 8.7903 8.0219 4.4396 11.205 7.8169 14.913 15.824 6.8726 14.839 5.1596 24.196-7.5512 41.243-7.4299 9.9645-16.758 19.299-29.489 29.51-17.831 14.302-24.362 16.439-52.91 17.313-14.524 0.4448-19.893 0.237-28.706-1.1159-15.962-2.4487-25.936-1.6813-41.448 3.1885-19.472 6.1126-31.296 8.489-42.238 8.489-11.76 0-16.796-1.086-25.782-5.5615-8.8289-4.3968-14.214-8.0976-25.397-17.454-10.027-8.389-26.584-18.784-35.268-22.141-3.1933-1.2351-9.677-4.6175-14.408-7.5176-10.869-6.6616-17.802-9.6869-25.407-11.086-5.8366-1.0743-6.1474-1.0305-11.09 1.5642-5.8902 3.0927-17.546 14.669-23.988 23.824-3.352 4.7643-4.9716 8.372-7.3602 16.395-4.0797 13.704-6.4969 26.819-6.4969 35.251 0 9.5838 1.989 13.455 11.329 22.05 23.699 21.808 35.591 25.292 91.686 26.858 20.082 0.5604 21.174 0.4944 39.028-2.3532 17.374-2.7715 19.039-2.8825 30.757-2.0457 12.917 0.9225 23.583 0.4263 45.07-2.0981 22.705-2.6666 27.269-3.3955 41.762-6.666 18.876-4.2594 22.326-5.2387 39.285-11.153 22.819-7.9576 46.703-15.327 56.602-17.465 10.92-2.3586 18.41-1.611 24.929 2.4891 4.4379 2.7906 5.6096 5.1874 5.7476 11.756 0.078 3.778-0.9688 6.9108-6.5414 19.55-7.4098 16.807-10.41 22.202-18.689 33.613-12.631 17.407-19.893 23.239-47.233 37.929-21.776 11.7-42.814 21.179-53.112 23.929-12.249 3.2711-49.344 4.8689-63.191 2.7208-3.3336-0.5169-11.342-2.8429-17.796-5.169-6.4544-2.3251-17.69-6.0789-24.968-8.3407-7.2779-2.2621-16.721-5.6655-20.985-7.5634-8.4132-3.7453-21.618-8.8099-22.969-8.8099-2.7951 0-11.482-4.6469-17.264-9.2347-8.5067-6.7495-25.293-17.376-35.495-22.47-4.3139-2.154-10.477-5.6205-13.696-7.7032-5.6992-3.6873-14.787-7.3511-18.235-7.3511-4.6131 0-5.4899 15.539-1.5715 27.845 3.4052 10.695 21.674 37.832 34.641 51.459 13.302 13.979 33.514 29.706 48.78 37.956 7.2262 3.9048 27.565 11.527 39.005 14.618 7.2128 1.9487 9.0113 2.0631 23.497 1.4997 8.6276-0.3356 18.432-1.1774 21.787-1.8698 3.3553-0.6934 14.532-2.9741 24.837-5.0695 22.264-4.5265 33.538-7.3386 47.06-11.738 13.197-4.2935 18.614-5.7628 29.738-8.0658 5.0921-1.0545 14.982-3.7878 21.979-6.0745 20.072-6.5595 43.261-12.506 53.573-13.736 8.3267-0.9934 10.194-0.938 15.472 0.46 19.924 5.2763 25.425 19.971 15.71 41.969-4.8122 10.896-18.236 28.943-26.766 35.983-13.888 11.463-43.263 28.829-54.803 32.399-10.249 3.1707-37.092 8.8422-46.975 9.9258-5.9777 0.6549-11.869 0.5451-21.787-0.406-7.4766-0.717-17.712-1.5792-22.744-1.9155-14.232-0.9522-20.49-3.0874-28.759-9.8126-1.6776-1.3644-5.0109-3.6178-7.4076-5.0074-2.3966-1.3893-7.553-5.4041-11.459-8.9219-3.9058-3.5173-9.3962-7.584-12.201-9.0369-4.5057-2.334-6.0965-2.6464-13.669-2.6841-7.9789-0.041-8.6856 0.108-10.24 2.1643-2.3343 3.087-2.0875 6.4304 0.94761 12.84 2.9407 6.2092 6.1276 10.14 14.127 17.422 10.416 9.4812 41.086 28.224 58.639 35.835 5.1797 2.2458 7.284 2.6373 13.944 2.5928 12.566-0.087 16.121-1.2893 29.934-10.156 10.857-6.9697 13.774-8.3717 24.269-11.665 15.563-4.8837 20.23-5.0623 29.461-1.1267 4.2716 1.8214 8.6092 4.5213 11.198 6.9696 4.0945 3.8725 4.2392 4.1868 4.6831 10.164 0.4111 5.5316 0.1777 6.7991-2.2612 12.283-3.8906 8.7479-9.8511 17.025-14.223 19.751-3.8861 2.4237-13.983 4.8988-15.602 3.8257-0.5067-0.3358-3.0498-0.3252-5.6514 0.035-8.0743 1.0822-8.2963 6.6-0.3753 9.3367 6.3574 2.197 14.907 4.4006 20.053 5.1688 8.3056 1.2397 13.298-1.3376 30.502-15.745 23.158-19.395 34.383-24.079 45.142-18.84 17.802 8.6698 19.517 22.389 5.4665 43.723l-4.4652 6.7801-8.4741 0.035c-14.214 0.049-15.127 3.0167-4.4285 14.398 4.9043 5.2168 9.852 12.026 16.019 22.044 15.366 24.961 16.961 30.153 15.202 49.501-1.7695 19.462-9.0738 35.135-18.067 38.769-3.655 1.477-3.9218 1.4402-16.373-2.2475-17.233-5.1034-21.272-7.9596-26.434-18.69-7.3881-15.36-7.6081-23.74-1.3966-53.234 3.7543-17.829 3.9231-24.645 0.7872-31.866-1.2283-2.8292-3.3916-8.1262-4.807-11.771-4.3725-11.261-8.4755-13.746-18.25-11.055-4.3575 1.1994-7.6993 1.4177-14.781 0.9652-13.592-0.8681-13.221-1.3777-14.03 19.286-0.3516 8.9811-1.1309 18.18-1.7324 20.44-2.0358 7.6558-11.975 32.472-15.115 37.739-6.7119 11.259-15.542 19.114-25.703 22.864-12.613 4.655-22.813 2.0107-35.272-9.145-7.5997-6.804-10.453-13.313-10.508-23.968-0.036-7.0321 0.1833-7.9312 3.6515-14.967 2.0293-4.1173 6.4692-11.061 9.8665-15.43 7.0803-9.1065 8.8038-12.416 13.877-26.648 5.1951-14.572 6.0964-18.613 6.1081-27.385 0.011-8.6337-1.9777-14.33-6.6624-19.08-3.7544-3.8063-6.2286-4.467-13.211-3.5259-14.074 1.896-20.289 8.1396-21.93 22.03-1.6045 13.58-4.5156 31.601-6.7685 41.902-2.3539 10.762-10.122 29.158-16.836 39.872-5.5675 8.884-23.596 26.11-32.341 30.902-6.1451 3.3674-16.404 5.6466-42.207 9.3767-7.5136 1.0863-8.2739 1.0315-14.244-1.0285-6.7556-2.3309-14.465-7.3898-17.435-11.441-3.6822-5.0232-4.435-8.4376-3.5368-16.04 2.7492-23.269 18.078-41.172 54.918-64.141 23.773-14.822 33.547-23.223 38.351-32.964 1.5962-3.2361 4.2086-7.9829 5.8056-10.547 3.2306-5.1892 3.5336-8.1698 1.993-19.609-1.0661-7.9153-3.6282-12.857-9.706-18.721-8.0321-7.7491-28.326-19.342-40.844-23.331-6.2742-1.9994-14.335-1.8698-18.694 0.3001-7.7568 3.8624-12.203 11.849-21.395 38.436-7.2543 20.982-11.217 30.53-16.486 39.725-19.247 33.586-47.388 56.299-97.497 78.692-35.832 16.013-56.923 22.742-150.58 48.044-37.399 10.104-41.69 10.816-101.39 16.82-19.314 1.9424-44.276 2.3332-54.935 0.8616zm-99.966-539.05c-17.373-4.0513-37.999-17.746-50.692-33.658-12.277-15.39-19.178-40.001-16.736-59.686 3.5744-28.822 22.124-53.964 48.784-66.121 8.8323-4.0276 27.309-8.3895 35.537-8.3895 32.123 0 61.793 34.902 65.586 77.151 2.5719 28.651-8.5074 58.017-28.656 75.953-6.7285 5.9894-19.092 12.711-27.061 14.711-6.8914 1.7304-19.432 1.7486-26.762 0.041z" fill="#5f63aa"/></g></g></svg>